<svg xmlns="http://www.w3.org/2000/svg" viewBox="0 0 64 64" role="img" aria-label="Sacred Hearth">
  <defs>
    <linearGradient id="g" x1="0" y1="0" x2="1" y2="1">
      <stop offset="0" stop-color="#00452e"/>
      <stop offset="1" stop-color="#002d1c"/>
    </linearGradient>
  </defs>
  <rect width="64" height="64" rx="16" fill="url(#g)"/>
  <circle cx="32" cy="32" r="22" fill="none" stroke="#fed65b" stroke-width="3" opacity="0.95"/>
  <path d="M32 16c1.1 0 2 .9 2 2v10h10c1.1 0 2 .9 2 2s-.9 2-2 2H34v14c0 1.1-.9 2-2 2s-2-.9-2-2V34H20c-1.1 0-2-.9-2-2s.9-2 2-2h10V18c0-1.1.9-2 2-2z" fill="#fed65b"/>
  <path d="M32 52c7.2-4.2 11.8-9.6 11.8-16.1 0-6.1-4-10.6-9.6-10.6-2.5 0-4.7 1.1-6.2 2.8-1.5-1.7-3.7-2.8-6.2-2.8-5.6 0-9.6 4.5-9.6 10.6C12.2 42.4 16.8 47.8 24 52" fill="none" stroke="#ffffff" stroke-width="2.5" stroke-linecap="round" opacity="0.85"/>
</svg>

